<svg xmlns="http://www.w3.org/2000/svg" width="139" height="48" viewBox="0 0 139 48" fill="none"><path d="M20.2505 28.2101C20.8559 28.2101 21.2966 28.7844 21.1398 29.3692L19.8656 34.1233C19.7577 34.5258 19.3929 34.8057 18.9762 34.8057H0.922228C0.316867 34.8057 -0.123774 34.2315 0.0328231 33.6468L8.82379 0.835877C8.93165 0.433344 9.29642 0.153442 9.71316 0.153442H14.6402C15.2456 0.153442 15.6862 0.727711 15.5295 1.3125L8.32223 28.2101H20.2505Z" fill="#13C366"></path><path d="M107.194 28.2101C107.799 28.2101 108.24 28.7843 108.083 29.369L106.81 34.1231C106.702 34.5257 106.337 34.8057 105.921 34.8057H81.7882C81.1829 34.8057 80.7422 34.2315 80.8988 33.6468L82.3548 28.2101L82.3594 28.1947L100.375 6.72296H82.8764C82.271 6.72296 81.8303 6.14871 81.987 5.56393L83.2538 0.835898C83.3616 0.433355 83.7264 0.153442 84.1432 0.153442H107.751C108.356 0.153442 108.797 0.727695 108.64 1.31248L107.19 6.72296C107.174 6.78161 107.146 6.83609 107.106 6.8827L89.2112 28.2101H107.194Z" fill="#13C366"></path><path d="M136.986 28.2101C137.591 28.2101 138.032 28.7843 137.875 29.369L136.602 34.1231C136.494 34.5257 136.13 34.8057 135.713 34.8057H111.58C110.975 34.8057 110.534 34.2315 110.691 33.6468L112.147 28.2101C112.15 28.2 112.155 28.1906 112.162 28.1825L130.167 6.72296H112.669C112.063 6.72296 111.623 6.14871 111.779 5.56393L113.046 0.8359C113.154 0.433356 113.519 0.153442 113.935 0.153442H137.543C138.148 0.153442 138.589 0.727694 138.432 1.31248L136.983 6.72296C136.966 6.78161 136.938 6.83609 136.899 6.8827L119.003 28.2101H136.986Z" fill="#13C366"></path><path d="M39.8702 0C30.2526 0 22.4297 7.82446 22.4297 17.4405C22.4297 27.0565 30.2541 34.8809 39.8702 34.8809C43.8847 34.8809 47.6954 33.532 50.7824 31.0485C50.7909 31.0556 50.7996 31.0627 50.8084 31.0698L50.8095 31.0707C53.8844 33.5279 57.7485 34.8824 61.6918 34.8824C64.5715 34.8824 67.291 34.1807 69.6876 32.9383C68.584 38.2871 63.9936 42.3221 58.3234 42.3221C57.5788 42.3221 56.8426 42.2533 56.1234 42.1175C55.5511 42.0094 54.9617 42.3369 54.807 42.9142L53.8938 46.3221C53.741 46.8922 54.0774 47.4899 54.6653 47.6154C55.8581 47.87 57.0825 48 58.3234 48C66.4747 48 73.3356 42.3789 75.2387 34.8106L75.239 34.8094L78.0081 24.4765C78.2162 23.7859 78.4193 22.7117 78.7533 21.3306C79.014 19.917 79.136 18.2702 79.1323 17.4405C79.1323 7.82291 71.3078 0 61.6918 0C60.0834 0 58.4888 0.219838 56.9529 0.651806C55.4442 1.07684 54.5649 2.64553 54.9899 4.15428C55.415 5.663 56.9838 6.54222 58.4925 6.11718C59.5268 5.82492 60.6038 5.67793 61.6918 5.67793C68.1781 5.67793 73.4544 10.9542 73.4544 17.4405C73.4544 23.9268 68.1781 29.203 61.6918 29.203C56.2229 29.203 51.5198 25.4949 50.2504 20.1869C49.8854 18.6621 48.354 17.7211 46.829 18.0861C45.3042 18.4511 44.3632 19.9825 44.7282 21.5075C45.1787 23.391 45.9492 25.1825 46.9849 26.8074C44.9485 28.36 42.474 29.2045 39.8702 29.2045C33.3838 29.2045 28.1076 23.9283 28.1076 17.442C28.1076 10.9557 33.3838 5.67946 39.8702 5.67946C45.822 5.67946 50.842 10.1271 51.5494 16.0254C51.7359 17.5826 53.1488 18.694 54.7063 18.5059C56.2637 18.3193 57.3733 16.9063 57.1868 15.349C56.1386 6.59828 48.6948 0 39.8702 0Z" fill="#13C366"></path></svg>