<svg width="140" height="31" viewBox="0 0 140 31" fill="none" xmlns="http://www.w3.org/2000/svg">
<g opacity="0.9">
<path d="M32.3172 20.0044H35.4943C36.0087 20.0044 36.508 19.9212 36.9921 19.7548C37.4762 19.5884 37.9074 19.316 38.2857 18.9378C38.6639 18.5444 38.9665 18.0376 39.1934 17.4173C39.4204 16.797 39.5338 16.0405 39.5338 15.1479C39.5338 14.3309 39.4506 13.5972 39.2842 12.9466C39.1329 12.2809 38.8757 11.7136 38.5126 11.2446C38.1495 10.7756 37.6654 10.42 37.0602 10.178C36.4702 9.92076 35.7364 9.79216 34.8589 9.79216H32.3172V20.0044ZM28.7542 6.79657H35.7439C36.7879 6.79657 37.7561 6.96299 38.6488 7.29584C39.5565 7.62868 40.3357 8.12794 40.9862 8.79363C41.6519 9.45932 42.1663 10.2914 42.5294 11.29C42.9076 12.2885 43.0968 13.461 43.0968 14.8075C43.0968 15.9876 42.9455 17.0769 42.6429 18.0754C42.3403 19.074 41.8789 19.9363 41.2586 20.6625C40.6534 21.3887 39.8894 21.9636 38.9665 22.3873C38.0587 22.7958 36.9845 23 35.7439 23H28.7542V6.79657ZM45.2348 11.2673H48.2984V13.4459H48.3438C48.4951 13.0828 48.6994 12.7499 48.9566 12.4473C49.2138 12.1296 49.5088 11.8649 49.8416 11.6531C50.1745 11.4261 50.53 11.2521 50.9082 11.1311C51.2865 11.0101 51.6798 10.9496 52.0883 10.9496C52.3001 10.9496 52.5346 10.9874 52.7918 11.063V14.0586C52.6405 14.0284 52.459 14.0057 52.2472 13.9905C52.0354 13.9603 51.8311 13.9451 51.6344 13.9451C51.0444 13.9451 50.5451 14.0435 50.1367 14.2402C49.7282 14.4368 49.3953 14.7092 49.1381 15.0571C48.8961 15.39 48.7221 15.7833 48.6162 16.2372C48.5103 16.6911 48.4573 17.1828 48.4573 17.7123V23H45.2348V11.2673ZM56.5158 17.145C56.5158 17.614 56.5611 18.0754 56.6519 18.5293C56.7427 18.9681 56.894 19.369 57.1058 19.7321C57.3327 20.0801 57.6278 20.3599 57.9909 20.5718C58.354 20.7836 58.8078 20.8895 59.3525 20.8895C59.8971 20.8895 60.351 20.7836 60.7141 20.5718C61.0924 20.3599 61.3874 20.0801 61.5992 19.7321C61.8261 19.369 61.985 18.9681 62.0758 18.5293C62.1665 18.0754 62.2119 17.614 62.2119 17.145C62.2119 16.676 62.1665 16.2145 62.0758 15.7607C61.985 15.3068 61.8261 14.9058 61.5992 14.5579C61.3874 14.2099 61.0924 13.93 60.7141 13.7182C60.351 13.4913 59.8971 13.3778 59.3525 13.3778C58.8078 13.3778 58.354 13.4913 57.9909 13.7182C57.6278 13.93 57.3327 14.2099 57.1058 14.5579C56.894 14.9058 56.7427 15.3068 56.6519 15.7607C56.5611 16.2145 56.5158 16.676 56.5158 17.145ZM53.2932 17.145C53.2932 16.207 53.437 15.3597 53.7244 14.6033C54.0119 13.8317 54.4204 13.1811 54.9499 12.6516C55.4794 12.1069 56.1148 11.6909 56.8562 11.4034C57.5975 11.1008 58.4296 10.9496 59.3525 10.9496C60.2754 10.9496 61.1075 11.1008 61.8488 11.4034C62.6053 11.6909 63.2483 12.1069 63.7778 12.6516C64.3073 13.1811 64.7158 13.8317 65.0033 14.6033C65.2907 15.3597 65.4345 16.207 65.4345 17.145C65.4345 18.083 65.2907 18.9302 65.0033 19.6867C64.7158 20.4432 64.3073 21.0937 63.7778 21.6384C63.2483 22.1679 62.6053 22.5764 61.8488 22.8638C61.1075 23.1513 60.2754 23.295 59.3525 23.295C58.4296 23.295 57.5975 23.1513 56.8562 22.8638C56.1148 22.5764 55.4794 22.1679 54.9499 21.6384C54.4204 21.0937 54.0119 20.4432 53.7244 19.6867C53.437 18.9302 53.2932 18.083 53.2932 17.145ZM73.4528 20.8895C73.9824 20.8895 74.4211 20.7836 74.7691 20.5718C75.1322 20.3599 75.4196 20.0876 75.6315 19.7548C75.8584 19.4068 76.0172 19.0059 76.108 18.552C76.1988 18.0981 76.2442 17.6367 76.2442 17.1677C76.2442 16.6987 76.1912 16.2372 76.0853 15.7833C75.9946 15.3295 75.8357 14.9285 75.6088 14.5806C75.3818 14.2175 75.0868 13.93 74.7237 13.7182C74.3757 13.4913 73.9445 13.3778 73.4301 13.3778C72.9006 13.3778 72.4543 13.4913 72.0912 13.7182C71.7432 13.93 71.4558 14.2099 71.2288 14.5579C71.017 14.9058 70.8657 15.3068 70.775 15.7607C70.6842 16.2145 70.6388 16.6835 70.6388 17.1677C70.6388 17.6367 70.6842 18.0981 70.775 18.552C70.8809 19.0059 71.0397 19.4068 71.2515 19.7548C71.4785 20.0876 71.7735 20.3599 72.1366 20.5718C72.4997 20.7836 72.9384 20.8895 73.4528 20.8895ZM67.5297 11.2673H70.5934V12.7651H70.6388C71.0322 12.1296 71.5314 11.6682 72.1366 11.3807C72.7418 11.0933 73.4075 10.9496 74.1337 10.9496C75.0565 10.9496 75.8508 11.1235 76.5165 11.4715C77.1822 11.8195 77.7344 12.2809 78.1732 12.8558C78.6119 13.4307 78.9372 14.104 79.149 14.8756C79.3608 15.6321 79.4667 16.4263 79.4667 17.2584C79.4667 18.0452 79.3608 18.8016 79.149 19.5278C78.9372 20.254 78.6119 20.897 78.1732 21.4568C77.7495 22.0166 77.2125 22.4629 76.5619 22.7958C75.9265 23.1286 75.1776 23.295 74.3152 23.295C73.589 23.295 72.9158 23.1513 72.2955 22.8638C71.6903 22.5613 71.191 22.1225 70.7977 21.5476H70.7523V27.1076H67.5297V11.2673Z" fill="#48626F"/>
<path d="M87.3262 20.8895C87.8558 20.8895 88.2945 20.7836 88.6425 20.5718C89.0056 20.3599 89.293 20.0876 89.5049 19.7548C89.7318 19.4068 89.8907 19.0059 89.9814 18.552C90.0722 18.0981 90.1176 17.6367 90.1176 17.1677C90.1176 16.6987 90.0646 16.2372 89.9587 15.7833C89.868 15.3295 89.7091 14.9285 89.4822 14.5806C89.2552 14.2175 88.9602 13.93 88.5971 13.7182C88.2491 13.4913 87.8179 13.3778 87.3036 13.3778C86.774 13.3778 86.3277 13.4913 85.9646 13.7182C85.6166 13.93 85.3292 14.2099 85.1022 14.5579C84.8904 14.9058 84.7391 15.3068 84.6484 15.7607C84.5576 16.2145 84.5122 16.6835 84.5122 17.1677C84.5122 17.6367 84.5576 18.0981 84.6484 18.552C84.7543 19.0059 84.9131 19.4068 85.1249 19.7548C85.3519 20.0876 85.6469 20.3599 86.01 20.5718C86.3731 20.7836 86.8119 20.8895 87.3262 20.8895ZM81.4031 11.2673H84.4668V12.7651H84.5122C84.9056 12.1296 85.4048 11.6682 86.01 11.3807C86.6152 11.0933 87.2809 10.9496 88.0071 10.9496C88.9299 10.9496 89.7242 11.1235 90.3899 11.4715C91.0556 11.8195 91.6078 12.2809 92.0466 12.8558C92.4853 13.4307 92.8106 14.104 93.0224 14.8756C93.2342 15.6321 93.3401 16.4263 93.3401 17.2584C93.3401 18.0452 93.2342 18.8016 93.0224 19.5278C92.8106 20.254 92.4853 20.897 92.0466 21.4568C91.623 22.0166 91.0859 22.4629 90.4353 22.7958C89.7999 23.1286 89.051 23.295 88.1886 23.295C87.4624 23.295 86.7892 23.1513 86.1689 22.8638C85.5637 22.5613 85.0644 22.1225 84.6711 21.5476H84.6257V27.1076H81.4031V11.2673ZM95.3673 6.79657H98.5899V23H95.3673V6.79657ZM100.991 14.8756C101.037 14.1191 101.226 13.4913 101.559 12.992C101.891 12.4927 102.315 12.0918 102.829 11.7892C103.344 11.4866 103.919 11.2748 104.554 11.1538C105.205 11.0176 105.855 10.9496 106.506 10.9496C107.096 10.9496 107.693 10.9949 108.299 11.0857C108.904 11.1614 109.456 11.3202 109.955 11.5623C110.455 11.8044 110.863 12.1448 111.181 12.5835C111.498 13.0071 111.657 13.5745 111.657 14.2856V20.3902C111.657 20.9197 111.688 21.4266 111.748 21.9107C111.809 22.3948 111.914 22.7579 112.066 23H108.798C108.737 22.8184 108.684 22.6369 108.639 22.4553C108.609 22.2587 108.586 22.062 108.571 21.8653C108.057 22.3948 107.451 22.7655 106.755 22.9773C106.059 23.1891 105.348 23.295 104.622 23.295C104.062 23.295 103.54 23.2269 103.056 23.0908C102.572 22.9546 102.149 22.7428 101.785 22.4553C101.422 22.1679 101.135 21.8048 100.923 21.366C100.726 20.9273 100.628 20.4053 100.628 19.8002C100.628 19.1345 100.742 18.5898 100.968 18.1662C101.211 17.7275 101.513 17.3795 101.876 17.1223C102.254 16.8651 102.678 16.676 103.147 16.5549C103.631 16.4188 104.115 16.3129 104.599 16.2372C105.084 16.1616 105.56 16.1011 106.029 16.0557C106.498 16.0103 106.914 15.9422 107.277 15.8514C107.64 15.7607 107.928 15.6321 108.14 15.4656C108.352 15.2841 108.45 15.0269 108.435 14.694C108.435 14.3461 108.374 14.0737 108.253 13.8771C108.147 13.6653 107.996 13.5064 107.799 13.4005C107.618 13.2795 107.398 13.2038 107.141 13.1736C106.899 13.1282 106.634 13.1055 106.347 13.1055C105.711 13.1055 105.212 13.2416 104.849 13.514C104.486 13.7863 104.274 14.2402 104.214 14.8756H100.991ZM108.435 17.2584C108.299 17.3795 108.125 17.4778 107.913 17.5535C107.716 17.614 107.497 17.6669 107.255 17.7123C107.028 17.7577 106.786 17.7955 106.528 17.8258C106.271 17.8561 106.014 17.8939 105.757 17.9393C105.515 17.9847 105.273 18.0452 105.031 18.1208C104.804 18.1965 104.599 18.3024 104.418 18.4385C104.252 18.5596 104.115 18.7184 104.009 18.9151C103.904 19.1118 103.851 19.3614 103.851 19.664C103.851 19.9515 103.904 20.1935 104.009 20.3902C104.115 20.5869 104.259 20.7457 104.441 20.8668C104.622 20.9727 104.834 21.0483 105.076 21.0937C105.318 21.1391 105.568 21.1618 105.825 21.1618C106.46 21.1618 106.952 21.0559 107.3 20.8441C107.648 20.6323 107.905 20.3826 108.072 20.0952C108.238 19.7926 108.336 19.49 108.367 19.1874C108.412 18.8848 108.435 18.6428 108.435 18.4612V17.2584ZM122.147 15.3976C121.935 14.051 121.141 13.3778 119.764 13.3778C119.25 13.3778 118.818 13.4988 118.47 13.7409C118.122 13.9678 117.835 14.2704 117.608 14.6487C117.396 15.0118 117.245 15.4202 117.154 15.8741C117.063 16.3129 117.018 16.7516 117.018 17.1904C117.018 17.614 117.063 18.0452 117.154 18.4839C117.245 18.9227 117.389 19.3236 117.585 19.6867C117.797 20.0347 118.077 20.3221 118.425 20.5491C118.773 20.776 119.197 20.8895 119.696 20.8895C120.467 20.8895 121.058 20.6777 121.466 20.254C121.89 19.8153 122.154 19.2328 122.26 18.5066H125.369C125.158 20.0649 124.552 21.2526 123.554 22.0696C122.555 22.8865 121.277 23.295 119.719 23.295C118.841 23.295 118.032 23.1513 117.29 22.8638C116.564 22.5613 115.944 22.1452 115.429 21.6157C114.915 21.0861 114.514 20.4583 114.227 19.7321C113.939 18.9907 113.795 18.1813 113.795 17.3038C113.795 16.3961 113.924 15.5564 114.181 14.7848C114.454 13.9981 114.847 13.3248 115.361 12.7651C115.876 12.1901 116.504 11.7438 117.245 11.4261C117.986 11.1084 118.834 10.9496 119.787 10.9496C120.483 10.9496 121.148 11.0403 121.784 11.2219C122.434 11.4034 123.009 11.6833 123.508 12.0616C124.023 12.4247 124.439 12.8861 124.757 13.4459C125.074 13.9905 125.256 14.6411 125.301 15.3976H122.147ZM135.087 15.8741C134.936 15.0571 134.664 14.4368 134.27 14.0132C133.892 13.5896 133.31 13.3778 132.523 13.3778C132.008 13.3778 131.577 13.4686 131.229 13.6501C130.896 13.8165 130.624 14.0284 130.412 14.2856C130.216 14.5427 130.072 14.8151 129.981 15.1025C129.906 15.39 129.86 15.6472 129.845 15.8741H135.087ZM129.845 17.9166C129.89 18.9605 130.155 19.717 130.639 20.186C131.123 20.655 131.819 20.8895 132.727 20.8895C133.378 20.8895 133.937 20.7306 134.406 20.4129C134.875 20.0801 135.163 19.7321 135.269 19.369H138.106C137.652 20.776 136.956 21.7821 136.018 22.3873C135.08 22.9924 133.945 23.295 132.614 23.295C131.691 23.295 130.859 23.1513 130.117 22.8638C129.376 22.5613 128.748 22.1376 128.234 21.593C127.719 21.0483 127.318 20.3978 127.031 19.6413C126.759 18.8848 126.622 18.0527 126.622 17.145C126.622 16.2675 126.766 15.4505 127.054 14.694C127.341 13.9376 127.75 13.287 128.279 12.7424C128.809 12.1826 129.437 11.7438 130.163 11.4261C130.904 11.1084 131.721 10.9496 132.614 10.9496C133.612 10.9496 134.482 11.1462 135.223 11.5396C135.965 11.9178 136.57 12.4322 137.039 13.0828C137.523 13.7333 137.871 14.4747 138.083 15.3068C138.295 16.1389 138.37 17.0088 138.31 17.9166H129.845Z" fill="#4FCACA"/>
</g>
<circle cx="9.5" cy="29.5" r="1.5" fill="#48626F"/>
<path fill-rule="evenodd" clip-rule="evenodd" d="M19.1884 12.5682C19.1884 16.7035 15.9863 21.5985 9.59418 27.2658C3.20206 21.5985 -3.61516e-07 16.7035 0 12.5682C5.42274e-07 6.36532 4.55724 2.35461 9.59418 2.35461C14.6311 2.35461 19.1884 6.36532 19.1884 12.5682ZM14.0177 11.5385C12.8031 12.2412 11.2718 13.127 9.59418 13.127C7.91654 13.127 6.38527 12.2412 5.17068 11.5385C3.4766 10.5585 2.39854 9.93485 2.39854 12.5682C2.39854 15.4953 4.73712 22.1523 9.59418 26.7609C14.4512 22.1523 16.7898 15.4828 16.7898 12.5682C16.7898 9.93485 15.7118 10.5585 14.0177 11.5385Z" fill="#4FCACA"/>
</svg>
